<svg xmlns="http://www.w3.org/2000/svg" viewBox="0 0 64 64" fill="none">
  <defs>
    <linearGradient id="background" x1="8" y1="6" x2="57" y2="59" gradientUnits="userSpaceOnUse">
      <stop stop-color="#7C3AED" />
      <stop offset="0.55" stop-color="#DB2777" />
      <stop offset="1" stop-color="#F97316" />
    </linearGradient>
    <linearGradient id="frame" x1="17" y1="18" x2="47" y2="47" gradientUnits="userSpaceOnUse">
      <stop stop-color="#FFFFFF" />
      <stop offset="1" stop-color="#FDF2F8" />
    </linearGradient>
  </defs>
  <rect x="4" y="4" width="56" height="56" rx="15" fill="url(#background)" />
  <rect x="5.5" y="5.5" width="53" height="53" rx="13.5" stroke="#FFFFFF" stroke-opacity="0.3" stroke-width="3" />
  <path d="M18 20.5C18 18.6 19.6 17 21.5 17H42.5C44.4 17 46 18.6 46 20.5V43.5C46 45.4 44.4 47 42.5 47H21.5C19.6 47 18 45.4 18 43.5V20.5Z" stroke="url(#frame)" stroke-width="3" />
  <path d="M28 25.4C28 24.2 29.3 23.5 30.3 24.1L40.2 30.7C41.1 31.3 41.1 32.7 40.2 33.3L30.3 39.9C29.3 40.5 28 39.8 28 38.6V25.4Z" fill="#FFFFFF" />
  <circle cx="18" cy="13" r="3" fill="#FDE68A" />
  <circle cx="46" cy="51" r="3" fill="#C4B5FD" />
</svg>
